<svg width="120" height="120" viewBox="0 0 120 120" fill="none" xmlns="http://www.w3.org/2000/svg">
<g filter="url(#filter0_d)">
<path fill-rule="evenodd" clip-rule="evenodd" d="M60 94C82.0914 94 100 76.0914 100 54C100 31.9086 82.0914 14 60 14C37.9086 14 20 31.9086 20 54C20 76.0914 37.9086 94 60 94Z" fill="#2E6FEF"/>
<path fill-rule="evenodd" clip-rule="evenodd" d="M61.5999 52.4H72.7999C73.6835 52.4 74.3999 53.1164 74.3999 54C74.3999 54.8837 73.6835 55.6 72.7999 55.6H61.5999V66.8C61.5999 67.6837 60.8835 68.4 59.9999 68.4C59.1162 68.4 58.3999 67.6837 58.3999 66.8V55.6H47.1999C46.3162 55.6 45.5999 54.8837 45.5999 54C45.5999 53.1164 46.3162 52.4 47.1999 52.4H58.3999V41.2C58.3999 40.3164 59.1162 39.6 59.9999 39.6C60.8835 39.6 61.5999 40.3164 61.5999 41.2V52.4Z" fill="white"/>
</g>
<defs>
<filter id="filter0_d" x="0" y="0" width="120" height="120" filterUnits="userSpaceOnUse" color-interpolation-filters="sRGB">
<feFlood flood-opacity="0" result="BackgroundImageFix"/>
<feColorMatrix in="SourceAlpha" type="matrix" values="0 0 0 0 0 0 0 0 0 0 0 0 0 0 0 0 0 0 127 0"/>
<feOffset dy="6"/>
<feGaussianBlur stdDeviation="10"/>
<feColorMatrix type="matrix" values="0 0 0 0 0 0 0 0 0 0 0 0 0 0 0 0 0 0 0.2 0"/>
<feBlend mode="normal" in2="BackgroundImageFix" result="effect1_dropShadow"/>
<feBlend mode="normal" in="SourceGraphic" in2="effect1_dropShadow" result="shape"/>
</filter>
</defs>
</svg>
