<svg width="40" height="40" viewBox="0 0 40 40" fill="none" xmlns="http://www.w3.org/2000/svg">
<g clip-path="url(#clip0)">
<path d="M0.833374 39.1667H39.1667" stroke="#636363" stroke-width="2" stroke-miterlimit="10" stroke-linecap="round"/>
<path d="M7.5 31.6667C7.5 31.4457 7.4122 31.2337 7.25592 31.0774C7.09964 30.9211 6.88768 30.8333 6.66667 30.8333H3.33333C3.11232 30.8333 2.90036 30.9211 2.74408 31.0774C2.5878 31.2337 2.5 31.4457 2.5 31.6667V39.1667H7.5V31.6667Z" stroke="#636363" stroke-width="2" stroke-miterlimit="10" stroke-linecap="round"/>
<path d="M17.5 23.3333C17.5 23.1123 17.4122 22.9004 17.2559 22.7441C17.0996 22.5878 16.8877 22.5 16.6667 22.5H13.3333C13.1123 22.5 12.9004 22.5878 12.7441 22.7441C12.5878 22.9004 12.5 23.1123 12.5 23.3333V39.1667H17.5V23.3333Z" stroke="#636363" stroke-width="2" stroke-miterlimit="10" stroke-linecap="round"/>
<path d="M27.5 26.6667C27.5 26.4457 27.4122 26.2337 27.2559 26.0774C27.0996 25.9211 26.8877 25.8333 26.6667 25.8333H23.3333C23.1123 25.8333 22.9004 25.9211 22.7441 26.0774C22.5878 26.2337 22.5 26.4457 22.5 26.6667V39.1667H27.5V26.6667Z" stroke="#636363" stroke-width="2" stroke-miterlimit="10" stroke-linecap="round"/>
<path d="M37.5 15C37.5 14.779 37.4122 14.567 37.2559 14.4107C37.0996 14.2545 36.8877 14.1667 36.6667 14.1667H33.3333C33.1123 14.1667 32.9004 14.2545 32.7441 14.4107C32.5878 14.567 32.5 14.779 32.5 15V39.1667H37.5V15Z" stroke="#636363" stroke-width="2" stroke-miterlimit="10" stroke-linecap="round"/>
<path d="M5 21.6667C6.38071 21.6667 7.5 20.5474 7.5 19.1667C7.5 17.7859 6.38071 16.6667 5 16.6667C3.61929 16.6667 2.5 17.7859 2.5 19.1667C2.5 20.5474 3.61929 21.6667 5 21.6667Z" stroke="#636363" stroke-width="2" stroke-miterlimit="10" stroke-linecap="round"/>
<path d="M15 13.3333C16.3807 13.3333 17.5 12.214 17.5 10.8333C17.5 9.45262 16.3807 8.33333 15 8.33333C13.6193 8.33333 12.5 9.45262 12.5 10.8333C12.5 12.214 13.6193 13.3333 15 13.3333Z" stroke="#636363" stroke-width="2" stroke-miterlimit="10" stroke-linecap="round"/>
<path d="M25 16.6667C26.3807 16.6667 27.5 15.5474 27.5 14.1667C27.5 12.7859 26.3807 11.6667 25 11.6667C23.6193 11.6667 22.5 12.7859 22.5 14.1667C22.5 15.5474 23.6193 16.6667 25 16.6667Z" stroke="#636363" stroke-width="2" stroke-miterlimit="10" stroke-linecap="round"/>
<path d="M35 5.83333C36.3807 5.83333 37.5 4.71404 37.5 3.33333C37.5 1.95262 36.3807 0.833328 35 0.833328C33.6193 0.833328 32.5 1.95262 32.5 3.33333C32.5 4.71404 33.6193 5.83333 35 5.83333Z" stroke="#636363" stroke-width="2" stroke-miterlimit="10" stroke-linecap="round"/>
<path d="M7.10168 17.4167L13.08 12.4333" stroke="#636363" stroke-width="2" stroke-miterlimit="10" stroke-linecap="round"/>
<path d="M17.3733 11.6233L22.6283 13.375" stroke="#636363" stroke-width="2" stroke-miterlimit="10" stroke-linecap="round"/>
<path d="M33 4.83333L26.735 12.1417" stroke="#636363" stroke-width="2" stroke-miterlimit="10" stroke-linecap="round"/>
</g>
<defs>
<clipPath id="clip0">
<rect width="40" height="40" fill="white"/>
</clipPath>
</defs>
</svg>
