<svg width="35" height="35" viewBox="0 0 35 35" fill="none" xmlns="http://www.w3.org/2000/svg">
<path d="M17.5 21.875C19.9162 21.875 21.875 19.9162 21.875 17.5C21.875 15.0838 19.9162 13.125 17.5 13.125C15.0838 13.125 13.125 15.0838 13.125 17.5C13.125 19.9162 15.0838 21.875 17.5 21.875Z" stroke="white" stroke-width="2" stroke-miterlimit="10" stroke-linecap="round" stroke-linejoin="round"/>
<path d="M30.3603 11.3378L29.2666 9.44344C28.6628 8.39672 27.3252 8.03906 26.2785 8.64281L25.7032 8.97531C23.5157 10.2375 20.7813 8.65922 20.7813 6.13375V5.46875C20.7813 4.26016 19.8024 3.28125 18.5938 3.28125H16.4063C15.1977 3.28125 14.2188 4.26016 14.2188 5.46875V6.13375C14.2188 8.65922 11.4844 10.2386 9.29691 8.97531L8.7216 8.64281C7.67488 8.03906 6.33722 8.39672 5.73347 9.44344L4.63972 11.3378C4.03597 12.3845 4.39363 13.7222 5.44035 14.3259L6.01566 14.6584C8.20316 15.9217 8.20316 19.0783 6.01566 20.3416L5.44035 20.6741C4.39363 21.2778 4.03597 22.6155 4.63972 23.6622L5.73347 25.5566C6.33722 26.6033 7.67488 26.9609 8.7216 26.3572L9.29691 26.0247C11.4844 24.7614 14.2188 26.3408 14.2188 28.8663V29.5312C14.2188 30.7398 15.1977 31.7188 16.4063 31.7188H18.5938C19.8024 31.7188 20.7813 30.7398 20.7813 29.5312V28.8663C20.7813 26.3408 23.5157 24.7614 25.7032 26.0247L26.2785 26.3572C27.3252 26.9609 28.6628 26.6033 29.2666 25.5566L30.3603 23.6622C30.9641 22.6155 30.6064 21.2778 29.5597 20.6741L28.9844 20.3416C26.7969 19.0783 26.7969 15.9217 28.9844 14.6584L29.5597 14.3259C30.6064 13.7222 30.9652 12.3845 30.3603 11.3378Z" stroke="white" stroke-width="2" stroke-miterlimit="10" stroke-linecap="round" stroke-linejoin="round"/>
</svg>
